<svg xmlns="http://www.w3.org/2000/svg" viewBox="0 0 2537 2001.3" id="svg244"><style id="style2">.st1{display:none}.st16{fill:#d7dce0}.st18{fill:#fff}.st19{fill:#333}.st20{fill:#727c87}.st34{display:inline;stroke:#97ffd0;stroke-width:6;stroke-miterlimit:10;fill:none}.st42,.st43{display:inline;fill:#0ff}.st43{fill:#fff}</style><g id="images"><g id="g87" opacity=".2"><linearGradient id="SVGID_1_" gradientUnits="userSpaceOnUse" x1="386.057" y1="2242.872" x2="656.806" y2="2242.872" gradientTransform="rotate(26.214 3969.154 2435.508)"><stop offset=".02" id="stop7" stop-color="#727c87"/><stop offset=".474" id="stop9" stop-color="#6d7680"/><stop offset="1" id="stop11" stop-color="#646971"/></linearGradient><path d="M1045.2 636.5c.2-7.6.5-15.8-3.6-22.2-5.5-8.7-16.9-11.2-27.2-12.3-52-5.3-106.9 9.4-145.8 44.3s-59.7 90.6-48 141.6c11.7 50.9 58.1 93.4 110.3 95.7 46.2 2.1 104.3-41 143-66.4-.1 0-30.9-113.2-28.7-180.7z" id="path14" fill="url(#SVGID_1_)"/><path class="st16" d="M808.9 838.2c-69.7 20.7-192.7-3.9-250.4-48 15.1-6.3 26.8-20.1 30.4-36.1 1.1-4.8 1.7-10.1 5.2-13.5 5.3-5.1 13.9-3 20.9-.9 49.4 15 159.1 32 211.7 11.6 25.8 3.1 37.8 55.9 12.4 74.5-17.3 9.5-30.2 12.4-30.2 12.4z" id="path16"/><linearGradient id="SVGID_2_" gradientUnits="userSpaceOnUse" x1="-99.066" y1="2620.737" x2="89.879" y2="2293.475" gradientTransform="rotate(26.214 3969.154 2435.508)"><stop offset="0" id="stop18" stop-color="#646971"/><stop offset=".526" id="stop20" stop-color="#6d7680"/><stop offset=".98" id="stop22" stop-color="#727c87"/></linearGradient><path d="M613.5 701.6c5.4 18-3.3 42.5-9.6 60.2-7.1 20-14.2 40.3-26.4 57.8-31.6 45.6-92.7 63.6-147.9 57.1-55.1-6.6-105.5-33.8-152.5-63.4-28.5-18-56.8-37.5-77-64.4-20.2-26.9-31.4-62.6-21.8-94.8 5.9-19.7 18.9-36.5 31.6-52.7 23.4-29.9 47.3-60.3 78.1-82.7 30.8-22.3 69.9-36 107.2-28.1 24.5 5.2 46.1 19 66.5 33.5 70.3 49.8 133.8 117.5 151.8 177.5z" id="path25" fill="url(#SVGID_2_)"/><path class="st16" d="M383.2 659.6c19.4 7.6 29.2 30.4 28.2 51.2-1 20.8-10.5 40.1-19.8 58.7-15.3 30.6-36.6 65.4-70.7 67.4-25.2 1.5-47-16.1-66-32.7-8.8-7.7-18.1-16.1-21.2-27.4-5-18.5 8.1-36.5 20.4-51.1 12.9-15.3 11.3-12.7 24.2-28 7.9-9.3 16.3-19.1 27.7-23.2 19.5-7 40.5 4.2 58.2 15.1l19-30z" id="path27"/><path class="st16" d="M238 439.7c-14.5-13.5-49.6-39.7-69.1-43.5s-46.5 8.1-58.3 24c-13.6 18.2-19.7 46.3-16.1 68.7 4.7 29.8 51.9 44.8 79.6 56.7 27.7 11.9 60.5 15.1 87.7 2.1 8.4-4 24.3-15.4 24.6-24.7.9-33.6-27.7-64-48.4-83.3z" id="path29"/><path class="st16" d="M180.7 607.4c-1.3-5.4-12.1-35.4-33.9-43.4-20.8-7.7-43.2-14-65.8-15.1-11.4-.5-33.7 1.5-44.9 3.8C21.8 555.8 8.3 589 7 595.2c-9.5 43.5 34.6 73.8 77.6 85.3 43.1 11.5 66 12.2 87.4-26.8 6.6-11.8 15.6-18.3 8.7-46.3z" id="path31"/><path class="st16" d="M553.7 610.9c4.6 5.2 8.9 10.4 13.1 15.6-10.6 90.3-68.4 196.9-152.4 243.7-7.3-1.4-14.5-3.2-21.6-5.2 87-45.2 150.4-166.9 160.9-254.1z" id="path33"/><g id="g37"><path class="st18" d="M2039.5 1043.5c1.7 159.3-45.6 384-149.4 505-103.8 120.9-242.3 164.5-400.1 187.1-55.3 7.9-133.5-18.8-186.7-35.4-55.2-17.3-158.5-79.5-202.4-117.1-164.9-141.2-272.1-314.6-271-531.5.5-104.3 90.1-252.6 181-303.9 30.5-17.2 61.7-19.4 96.4-23.6 195.3-23.9 371.2 127.1 567.3 110.7 46.7-3.9 92.7-15.7 139.5-16.5 63.5-1.1 132.1 2.3 178.6 55.8 28.8 33 45.9 90.3 46.8 169.4z" id="path35"/></g><path class="st19" d="M1066.5 957.4c9.4 121.5 185.4 206.9 393 190.8 207.6-16.1 368.3-127.6 358.9-249-9.4-121.5-185.4-206.9-393-190.8-207.6 16.1-368.3 127.6-358.9 249z" id="path39"/><g id="g43"><path class="st20" d="M1276.7 1588c67.4 24.3 127.2 104.3 159.8 142.7-40.5-5.5-84.7-19.4-119.9-30.5l-12.2-3.8c-18.5-5.8-42.6-16.8-68.1-30.3-3.2-18-7.2-49.8.9-68.3-50.8-83.2-97.2-203.9-71.2-357.7-1.7-.9-3.4-1.8-5.2-2.7-87.7-45.5-61.3-65.9-47.8-111.5 10.1-34-56.7-91.2-69.2-129.5-27.1-83.1-4.8-174.5 18.8-230.1 21.6 27.6 76.6 66 76.6 66s-73.4 57.1-24.5 165c12.1 26.8 74.9 83.3 116.8 107 98.3 55.6 223.2 61.1 326.4 15.2 125.7-55.9 216.7-169.7 303.5-296.9 36.1 2.1 71.1 9.2 100.8 29.3-9.9 65.7-197.5 217.4-299.2 287.7-52.1 36-173.9 89.3-236.7 80.5-57.9-8.1-67 3.3-115.1 32-42.2 25.1-60.5 27.9-109 5.8-20.5 142.5 26.1 254.2 74.5 330.1z" id="path41"/></g><g id="g47"><path class="st18" d="M1605.2 28.5c-139.4-40.7-299.4-24.9-420.6 61.1-128.2 90.9-199.6 255-202.8 409.3-6.8 332.3 317.8 633 650.5 513 197.3-71.1 332.3-298 350.3-499.2 20.9-234.4-167.6-423.1-377.4-484.2z" id="path45"/></g><path class="st19" d="M1166.6 221.5c-75.8 153.8 15.5 353.6 203.9 446.3s402.6 43.2 478.3-110.6-49.6-284.4-238-377.1-368.4-112.4-444.2 41.4z" id="path49"/><g id="g53"><path class="st20" d="M1340.5 668.5c-46 100.3-66.7 251.5-46.4 324.7 5.1 2.4 10.2 4.8 15.4 6.9-17.1-158.8 51.2-320.8 54.6-319.2 195.4 96.1 418.8 43.5 498-117.3 79.2-160.8-49.4-300.7-244.7-396.8s-384.7-112.6-464 48.2c-75.9 154.2 7.9 352.7 187.1 453.5zM1179.8 228c72.1-146.3 243.7-123.7 424.6-34.7 180.8 89 303.4 211.2 231.4 357.5-72.1 146.3-277.8 192.9-458.7 103.9-180.9-89-269.4-280.4-197.3-426.7z" id="path51"/></g><linearGradient id="SVGID_3_" gradientUnits="userSpaceOnUse" x1="1493.158" y1="2033.277" x2="1878.925" y2="2033.277" gradientTransform="rotate(26.214 3969.154 2435.508)"><stop offset=".019" id="stop55" stop-color="#727c87"/><stop offset=".474" id="stop57" stop-color="#6d7680"/><stop offset="1" id="stop59" stop-color="#646971"/></linearGradient><path d="M2172.5 886.4c-56.6-22.4-192.2-20-232.2 64.4-20.2 42.7-36.8 102.9-28.3 150.2 9.9 55.6 43.1 107.8 92.3 135.5 49.2 27.7 122.3 33.4 166.9 12.1 37.2-17.7 78.6-58 98.6-93.9 19.1-34.4 24.8-106.1 14.6-142.3-11.4-40.7-44.7-99.4-111.9-126z" id="path62" fill="url(#SVGID_3_)"/><path class="st16" d="M2189.2 1183.7c-14.7 15.8-30.9 36.4-26.4 58.5 2.8 13.8 12.9 23.4 21.8 33 21.7 23.7 38.4 53.6 48.3 86.4 4.9 16.2 8.2 33.5 16.9 47.3 8.6 13.8 24.6 23.4 38.6 16.9 15.1-7.1 20.8-28.8 21-47.5.7-73.1-30.7-131.4-84.4-212-9.9-14.6-28.1 9.1-35.8 17.4z" id="path64"/><linearGradient id="SVGID_4_" gradientUnits="userSpaceOnUse" x1="1935.17" y1="2428.262" x2="2333.685" y2="2428.262" gradientTransform="rotate(26.214 3969.154 2435.508)"><stop offset=".02" id="stop66" stop-color="#727c87"/><stop offset=".474" id="stop68" stop-color="#6d7680"/><stop offset="1" id="stop70" stop-color="#646971"/></linearGradient><path d="M2402.7 1406.4c-40.5-46.1-94.8-36.5-114.6-34.8-18.6 1.6-47.5 15.4-60.8 30.2-41.7 46.2-68.2 95.4-84.7 155.4-9.5 34.8-10.2 71.2-10.8 107.3-.6 37.5-.6 77.1 18.2 109.6 19.8 34.2 57.6 47.1 96.5 53.9 38.9 6.8 79.2 9.3 118 2 24.6-4.6 50.1-10.3 69.3-26.4 26.7-22.4 51.9-38.7 57.6-81.6 18.3-137-16-232.8-88.7-315.6z" id="path73" fill="url(#SVGID_4_)"/><path class="st16" d="M2076.3 1002.1c-4.5 45.2 30 85.7 77 90.3 47 4.7 88.8-28.2 93.3-73.4s-30-85.7-77-90.3c-47-4.7-88.8 28.1-93.3 73.4z" id="path75"/><path class="st16" d="M2138.1 1735.6c-18.1-7.9-38.9-3.5-58.1 1-31 7.3-63.8 15.5-86.2 38.3-35 35.6-27.7 102.9 14.1 130.2 10.6 7 24.4 11.5 36 6.2 8-3.6 13.4-11.2 18.8-18.1 29.5-38.1 80.7-68 115.6-83.6 19.2-8.7-15.4-63.2-40.2-74z" id="path77"/><path class="st16" d="M2311.7 1837c-18.8-3.1-34.4 22.9-45.1 38.6-17.1 25-38.6 46.3-35.9 76.5 2 21.6 16.8 28.6 37.1 36.5 20.2 7.9 44.5 8.2 62.7-3.7 27.6-18.1 32.5-57 26.8-89.5-3.1-17.8-11.1-53.1-29-55.5-4.2-.5-12.4-2.2-16.6-2.9z" id="path79"/><path class="st16" d="M2404.8 1839.6c-3 6.3-3 13.5-2.9 20.4.1 20 .3 40.4 6.9 59.3 6.6 18.9 20.9 36.2 40.3 41 14.8 3.6 30.6-.5 43.6-8.3 26.7-16.2 42.3-49.1 37.9-80s-42.9-66.4-74.1-67.7c-18.8-.8-40.4 11.4-51.7 35.3z" id="path81"/><path class="st16" d="M2136 1648.8c.1-6 .3-12 .6-18.1 53.9-25.3 260.9-49.3 354.1-18 .5 5.7 1 11.5 1.3 17.4-92.4-31.2-307.8-2.7-356 18.7z" id="path83"/><path class="st16" d="M2322.7 1610.4c1.6 43.3 4.2 78.3 44.7 76.8s40.5-36.7 38.8-79.9c-1.6-43.3-26.2-85.2-45-84.5-18.8.7-40.1 44.4-38.5 87.6z" id="path85"/></g></g><g id="grid_image"><g class="st1" id="g120"><path class="st34" id="line92" d="M-3725.8 11h5120"/><path class="st34" id="line94" d="M-3725.8 61h5120"/><path class="st34" id="line96" d="M-3725.8 111h5120"/><path class="st34" id="line98" d="M-3725.8 161h5120"/><path class="st34" id="line100" d="M-3725.8 211h5120"/><path class="st34" id="line102" d="M-3725.8 261h5120"/><path class="st34" id="line104" d="M-3725.8 311h5120"/><path class="st34" id="line106" d="M-3725.8 361h5120"/><path class="st34" id="line108" d="M-3725.8 411h5120"/><path class="st34" id="line110" d="M-3725.8 461h5120"/><path class="st34" id="line112" d="M-3725.8 511h5120"/><path class="st34" id="line114" d="M-3725.8 561h5120"/><path class="st34" id="line116" d="M-3725.8 611h5120"/><path class="st34" id="line118" d="M-3725.8 661h5120"/></g><g class="st1" id="g178"><path class="st34" id="line122" d="M38.9-1139V661"/><path class="st34" id="line124" d="M89.1-1139V661"/><path class="st34" id="line126" d="M139.3-1139V661"/><path class="st34" id="line128" d="M189.5-1139V661"/><path class="st34" id="line130" d="M239.7-1139V661"/><path class="st34" id="line132" d="M289.9-1139V661"/><path class="st34" id="line134" d="M340.1-1139V661"/><path class="st34" id="line136" d="M390.3-1139V661"/><path class="st34" id="line138" d="M440.5-1139V661"/><path class="st34" id="line140" d="M490.7-1139V661"/><path class="st34" id="line142" d="M540.9-1139V661"/><path class="st34" id="line144" d="M591.1-1139V661"/><path class="st34" id="line146" d="M641.3-1139V661"/><path class="st34" id="line148" d="M691.5-1139V661"/><path class="st34" id="line150" d="M741.7-1139V661"/><path class="st34" id="line152" d="M791.9-1139V661"/><path class="st34" id="line154" d="M842.1-1139V661"/><path class="st34" id="line156" d="M892.3-1139V661"/><path class="st34" id="line158" d="M942.5-1139V661"/><path class="st34" id="line160" d="M992.7-1139V661"/><path class="st34" id="line162" d="M1042.8-1139V661"/><path class="st34" id="line164" d="M1093-1139V661"/><path class="st34" id="line166" d="M1143.2-1139V661"/><path class="st34" id="line168" d="M1193.4-1139V661"/><path class="st34" id="line170" d="M1243.6-1139V661"/><path class="st34" id="line172" d="M1293.8-1139V661"/><path class="st34" id="line174" d="M1344-1139V661"/><path class="st34" id="line176" d="M1394.2-1139V661"/></g><g class="st1" id="g208"><path class="st42" id="rect180" d="M-3725.8 516.3h5120v4h-5120z"/><path class="st42" id="rect182" d="M-3725.8 416.3h5120v4h-5120z"/><path class="st42" id="rect184" d="M-3725.8 466.3h5120v4h-5120z"/><path class="st42" id="rect186" d="M-3725.8 566.3h5120v4h-5120z"/><path class="st42" id="rect188" d="M-3725.8 616.3h5120v4h-5120z"/><path class="st42" d="M-592.4 366.3c-38.2 13.3-79.5 20.2-121.7 20.2s-83.6-6.9-121.7-20.2h-2889.9v4h2890.2c6.6 2.6 11.7 4 20 6.5 32.9 9.2 67.2 13.8 101.5 13.8s68.7-4.6 101.5-13.8c7.5-2.1 15.4-4.4 20.5-6.5h1986.3v-4H-592.4z" id="path190"/><path class="st42" d="M-525.9 316.3c-58 23.7-122.3 36.1-188.2 36.1-66 0-130.2-12.4-188.3-36.1h-2823.4v4h2822.6c58.3 23.7 122.8 36.1 189 36.1s130.7-12.4 189-36.1h1919.3v-4h-1920z" id="path192"/><path class="st42" d="M-446.4 66.6c-81.3 37.3-173.2 56.9-267.7 56.9s-186.4-19.6-267.7-56.9l-.8-.3h-2743.2v4h2742.4l.7.3c81.6 37.3 173.7 56.9 268.5 56.9s186.9-19.6 268.5-56.9l.8-.3h1839.1v-4H-445.7s-.1 0-.7.3z" id="path194"/><path class="st42" d="M-464.6 16.2c-76.2 33.4-161.7 50.9-249.5 50.9-87.8 0-173.2-17.5-249.4-50.9h-2762.2v4h2761.3c76.5 33.4 162.2 50.9 250.3 50.9 88.1 0 173.7-17.5 250.3-50.9h1858.1v-4H-464.6z" id="path196"/><path class="st42" d="M-440.7 117.1c-82.7 39-176.7 59.6-273.4 59.6-96.8 0-190.8-20.6-273.4-59.6-1.1-.6-1.6-.8-1.6-.8h-2736.7v4h2735.9s2.5 1.4 2.6 1.4c82.7 38.7 176.6 59 273.1 59 96.7 0 190.7-20.4 273.5-59.2 1.9-.9 2.4-1.2 2.4-1.2h1832.4v-4H-439s-.5.2-1.7.8z" id="path198"/><path class="st42" d="M-485.5 266.3c-69.9 30.3-148.2 46.2-228.6 46.2s-158.7-15.9-228.6-46.2h-2783v4h2782.3c70.2 30.3 148.8 46.2 229.4 46.2 80.7 0 159.2-15.9 229.4-46.2h1878.9v-4H-485.5z" id="path200"/><path class="st42" d="M-457.1 216.6c-78.1 35.6-166.3 54.3-257 54.3-90.7 0-178.9-18.7-257-54.3l-.6-.3h-2754.1v4h2753.7l3 1.6c77.7 34.8 165.1 53 255 53s177.3-18.2 255-53c3.2-1.5 3.5-1.6 3.5-1.6h1849.9v-4H-456.5s-.3.1-.6.3z" id="path202"/><path class="st42" d="M-447.1 166.2c-81.1 37.1-172.7 56.6-267 56.6-94.3 0-185.9-19.5-267-56.6h-2744.6v4h2743.8c81.4 37.1 173.3 56.6 267.9 56.6 94.5 0 186.4-19.5 267.8-56.6h1840.5v-4H-447.1z" id="path204"/><path class="st42" d="M-490.2-33.7c-68.8 29-145.3 44.1-223.9 44.1S-869.3-4.8-938-33.7h-2787.8v4h2786.9c69.1 29 145.9 44.1 224.8 44.1S-558.4-.8-489.3-29.7h1883.6v-4H-490.2c.1 0 0 0 0 0z" id="path206"/></g></g><g id="stars"><g class="st1" id="g217"><circle class="st43" cx="242.2" cy="515.4" r="7.7" id="circle211"/><circle class="st43" cx="168.6" cy="1240.7" r="19.2" id="circle213"/><circle class="st43" cx="94.9" cy="1651.4" r="19.2" id="circle215"/></g></g></svg>